<svg xmlns="http://www.w3.org/2000/svg" width="42" height="42" fill="none"><g fill="#0A4231" clip-path="url(#a)"><path d="m41.4 23.538-.424-.06c-1.592-.226-2.872.34-3.907 1.201.31-1.184.488-2.399.53-3.622 2.226-.19 3.301-1.416 3.816-2.46 1.05-2.126.57-5.187-.516-6.604l-.28-.366-.43.167c-1.583.612-2.68 1.934-3.269 3.928a16.5 16.5 0 0 0-1.39-3.31c1.703-1.268 1.896-2.826 1.735-3.952-.32-2.235-2.41-4.527-3.928-4.935l-.412-.11-.248.347c-.954 1.34-.961 2.89-.594 4.335a16.7 16.7 0 0 0-2.437-1.815c.247-1.477-.198-2.706-1.278-3.492-1.553-1.132-4.27-1.123-5.484-.362l-.342.215.061.4c.468 3.048 4.272 3.773 5.896 4.083q.128.023.234.045a15.47 15.47 0 0 1 5.485 5.43l.064.109a15.36 15.36 0 0 1 2.098 7.754l-.005.406C36.161 29.165 29.346 35.848 21 35.848S5.84 29.165 5.625 20.87l-.005-.406c0-2.732.726-5.41 2.098-7.754l.064-.11a15.47 15.47 0 0 1 5.485-5.43l.234-.044c1.624-.31 5.428-1.035 5.896-4.083l.061-.4-.342-.215c-.55-.345-1.454-.548-2.411-.538l.01 1.23a4.4 4.4 0 0 1 1.352.18c-.625 1.711-3.164 2.299-4.53 2.566-.068-.592.023-1.095.27-1.499.422-.686 1.221-.99 1.817-1.124l-.27-1.2c-1.186.266-2.084.848-2.595 1.681-.438.714-.573 1.573-.405 2.558a16.7 16.7 0 0 0-2.437 1.815c.367-1.444.36-2.996-.594-4.335l-.248-.347-.413.11c-1.516.408-3.606 2.7-3.927 4.935-.161 1.126.033 2.684 1.735 3.952a16.5 16.5 0 0 0-1.39 3.31c-.589-1.994-1.687-3.316-3.269-3.928l-.43-.167-.28.366C.015 13.411-.464 16.471.585 18.597c.515 1.043 1.59 2.27 3.816 2.46.042 1.223.22 2.438.53 3.622-1.035-.862-2.315-1.427-3.907-1.201l-.423.06-.092.417c-.323 1.471.493 4.527 2.506 5.967.561.402 1.33.757 2.292.757.641 0 1.369-.159 2.178-.565.588.821 1.25 1.588 1.976 2.29-1.642-.327-3.381-.21-4.835 1.045l-.323.28.148.4c.578 1.556 3.197 3.53 5.582 3.648q.119.006.24.006c1.174 0 2.665-.432 3.756-2.24q1.197.556 2.47.915c-2.037.664-3.14 1.766-4.155 2.782l.87.87c1.559-1.56 3.032-3.032 7.786-3.032s6.227 1.473 7.787 3.032l.87-.87c-1.017-1.016-2.12-2.118-4.156-2.782a16.5 16.5 0 0 0 2.47-.916c1.09 1.81 2.582 2.24 3.755 2.24q.123 0 .24-.005c2.386-.118 5.005-2.092 5.582-3.648l.15-.4-.324-.28c-1.454-1.255-3.193-1.372-4.835-1.045a16.8 16.8 0 0 0 1.976-2.29c.81.406 1.537.565 2.178.565.962 0 1.731-.355 2.292-.757 2.013-1.44 2.829-4.496 2.506-5.967zM28.462 5.866c-1.367-.267-3.905-.855-4.53-2.568.915-.288 2.643-.292 3.71.486.648.472.922 1.17.82 2.082M3.73 28.922c-1.33-.951-2.076-3.026-2.065-4.261h.028c2.367 0 3.884 2.46 4.91 4.123l.186.3c-1.143.528-2.17.474-3.06-.162M5.953 8.634c.231-1.61 1.6-3.192 2.614-3.747 1.05 2.111-.594 5.008-1.467 6.458-.915-.729-1.3-1.638-1.147-2.711m-4.265 9.419c-.775-1.571-.462-3.739.134-4.9 2.272 1.26 2.514 4.618 2.557 6.666-1.278-.141-2.181-.733-2.691-1.766m8.406 18.495c-1.761-.087-3.608-1.42-4.285-2.455 2.176-1.437 5.182-.033 7.106.912-.692 1.083-1.638 1.601-2.821 1.543m26.096-2.455c-.677 1.035-2.523 2.368-4.284 2.455-1.182.058-2.13-.46-2.82-1.543 1.923-.945 4.93-2.349 7.104-.912m3.988-20.94c.596 1.161.909 3.329.134 4.9-.51 1.032-1.414 1.625-2.691 1.766.043-2.048.285-5.406 2.557-6.665m-6.746-8.266c1.016.555 2.384 2.137 2.614 3.747.154 1.073-.231 1.983-1.146 2.71-.873-1.449-2.517-4.346-1.468-6.457m4.837 24.035c-.89.636-1.916.69-3.059.162l.185-.3c1.027-1.664 2.544-4.123 4.911-4.123h.028c.01 1.234-.736 3.31-2.065 4.26"/><path d="m28.841 29.136.826.912q.48-.435.913-.913l-.912-.826q-.393.435-.827.827"/><path d="M33.92 20.467c0-7.123-5.796-12.92-12.92-12.92S8.08 13.345 8.08 20.468s5.796 12.92 12.92 12.92c2.78 0 5.43-.87 7.662-2.517l-.73-.99a11.6 11.6 0 0 1-3.122 1.641 10 10 0 0 0 1.448-2.06c1.228-2.266 1.938-5.221 2.02-8.378h4.394a11.6 11.6 0 0 1-2.26 6.316l.99.73a12.8 12.8 0 0 0 2.518-7.662m-1.247-.615h-4.395c-.082-3.157-.792-6.112-2.02-8.378-.435-.803-.92-1.49-1.444-2.056 4.394 1.52 7.607 5.592 7.86 10.434M20.385 8.841v11.011h-5.432c.08-2.953.738-5.7 1.871-7.792.994-1.834 2.24-2.953 3.56-3.22m0 12.242v11.011c-1.32-.266-2.567-1.386-3.56-3.22-1.134-2.09-1.791-4.838-1.872-7.791zm1.23-12.242c1.32.266 2.567 1.386 3.561 3.22 1.134 2.09 1.79 4.838 1.87 7.791h-5.43zm-4.43.577a10 10 0 0 0-1.442 2.056c-1.229 2.266-1.939 5.221-2.02 8.378H9.327c.252-4.842 3.466-8.913 7.859-10.434M9.328 21.083h4.396c.081 3.157.791 6.112 2.02 8.378.434.803.92 1.49 1.443 2.056-4.393-1.521-7.607-5.592-7.859-10.434m15.85 7.792c-.995 1.833-2.241 2.953-3.562 3.22V21.082h5.432c-.08 2.953-.737 5.7-1.87 7.792"/><path d="M22.846 12.47h1.23v1.23h-1.23zm0 2.46h1.23v1.231h-1.23z"/></g><defs><clipPath id="a"><path fill="#fff" d="M0 0h42v42H0z"/></clipPath></defs></svg>