<svg xmlns="http://www.w3.org/2000/svg" width="44" height="44" fill="none"><path fill="#0A4231" d="m35.875 17.043-3.483-8.886h1.591a.495.495 0 0 0 .491-.491V4.614a.495.495 0 0 0-.491-.49H20.598a2.2 2.2 0 0 0 .367-1.212A2.19 2.19 0 0 0 18.771.725a2.19 2.19 0 0 0-2.193 2.187c0 .452.137.864.367 1.211H3.56a.495.495 0 0 0-.491.491v3.052c0 .268.222.49.49.49h2.528L1.04 21.038c0 .007 0 .02-.007.026a.4.4 0 0 0-.032.151c0 1.84.622 3.392 1.8 4.486 1.048.969 2.45 1.506 3.949 1.506 2.855 0 5.75-2.056 5.75-5.992a.4.4 0 0 0-.034-.144c0-.013 0-.02-.006-.033l-.007-.013L7.41 8.157h9.521v13.869a13.9 13.9 0 0 0-2.023 7.216c0 .517.033 1.028.085 1.526a8.68 8.68 0 0 0-4.066 4.047h-9.43a.495.495 0 0 0-.49.49v2.98c0 .269.222.491.49.491h17.196c2.567 2.764 6.214 4.5 10.274 4.5 7.74 0 14.033-6.3 14.033-14.04-.007-5.22-2.881-9.777-7.125-12.193M6.755 26.23c-1.25 0-2.416-.439-3.28-1.244-.871-.806-1.375-1.932-1.467-3.274h9.501c-.222 3.097-2.566 4.518-4.754 4.518m-4.538-5.5L6.755 9.146l4.538 11.584zM34.56 16.38a13.9 13.9 0 0 0-5.219-1.152l2.384-6.083zm-6.28-1.139c-2.586.124-4.99.943-7.026 2.285v-9.37h9.803zM17.56 2.912a1.212 1.212 0 0 1 2.423 0 1.213 1.213 0 0 1-2.423 0M4.051 5.105h29.434v2.07H4.051zm13.876 3.052h2.344V18.24c-.872.69-1.66 1.482-2.344 2.358zm-2.764 23.626c.197 1.054.505 2.076.917 3.032h-4.034a7.7 7.7 0 0 1 3.117-3.032M1.988 37.8v-1.998h14.57c.373.708.812 1.37 1.297 1.998zm26.973 4.498c-7.197 0-13.058-5.854-13.058-13.057s5.854-13.057 13.058-13.057c7.196 0 13.05 5.854 13.05 13.057S36.157 42.3 28.961 42.3"/><path fill="#0A4231" d="M35.234 20.965a.48.48 0 0 0-.21-.36 10.5 10.5 0 0 0-6.064-1.925c-5.828 0-10.562 4.74-10.562 10.562 0 2.18.668 4.276 1.925 6.064a.5.5 0 0 0 .36.21h.04a.5.5 0 0 0 .347-.145l14.02-14.02a.5.5 0 0 0 .143-.386M20.8 34.251a9.5 9.5 0 0 1-1.42-5.009c0-5.284 4.295-9.58 9.58-9.58a9.5 9.5 0 0 1 5.009 1.42zm16.796-11.073a.5.5 0 0 0-.36-.21.5.5 0 0 0-.393.145l-14.013 14.02a.483.483 0 0 0 .066.746 10.5 10.5 0 0 0 6.07 1.925c5.821 0 10.556-4.74 10.556-10.562 0-2.174-.668-4.276-1.926-6.064m-8.637 15.65a9.5 9.5 0 0 1-5.01-1.42l13.17-13.169a9.5 9.5 0 0 1 1.42 5.01c0 5.277-4.295 9.58-9.58 9.58"/></svg>