<svg xmlns="http://www.w3.org/2000/svg" width="42" height="42" fill="none"><path stroke="#0A4231" stroke-linecap="round" stroke-linejoin="round" stroke-miterlimit="10" stroke-width="1.23" d="m8.018 7.586 8.609 5.323 7.185-5.732a1.7 1.7 0 0 1 2.125.008l10.775 8.732 1.01-1.246a.73.73 0 0 1 1.251.199l2.362 6.161a.732.732 0 0 1-.798.985l-6.516-1.035a.732.732 0 0 1-.454-1.183l1.01-1.246-9.716-7.873-7.052 5.627a1.69 1.69 0 0 1-1.95.117L1.42 7.493a1.697 1.697 0 0 1 1.784-2.885l2.374 1.467m1.205 31.57h5.501a.483.483 0 0 0 .484-.482v-2.35a.483.483 0 0 0-.484-.485H2.027a.484.484 0 0 0-.483.484v2.35c0 .267.216.484.483.484h1.884"/><path stroke="#0A4231" stroke-linecap="round" stroke-linejoin="round" stroke-miterlimit="10" stroke-width="1.23" d="M39.125 31.012h1.35c.266 0 .482.217.482.483v2.35a.483.483 0 0 1-.483.484H30.218a.48.48 0 0 1-.483-.483v-2.35c0-.267.215-.484.483-.484h6.036m1.38-25.54c-.105-.089-.71-.545-1.596-.277-.9.27-1.122 1.5-.512 1.98.351.274.879.5 1.59.752 1.592.562 1.003 2.807-.616 2.818-.632.004-.927-.036-1.482-.399m1.482 1.218v-.82m0-5.63v-.76M12.284 31.012H2.027a.483.483 0 0 0-.483.483v2.35a.483.483 0 0 0 .483.484h10.256a.483.483 0 0 0 .484-.483v-2.35a.483.483 0 0 0-.483-.484m-.462-3.317H1.565a.484.484 0 0 0-.483.484v2.35a.483.483 0 0 0 .483.483h10.257a.483.483 0 0 0 .483-.483v-2.35a.484.484 0 0 0-.483-.484m.462-3.317H2.027a.483.483 0 0 0-.483.484v2.35a.483.483 0 0 0 .483.483h10.256a.483.483 0 0 0 .484-.483v-2.35a.483.483 0 0 0-.483-.484m.463-3.317H2.49a.483.483 0 0 0-.483.484v2.35a.483.483 0 0 0 .483.483h10.257a.484.484 0 0 0 .483-.483v-2.35a.483.483 0 0 0-.483-.484m-1.064-3.316H1.427a.483.483 0 0 0-.484.483v2.35a.483.483 0 0 0 .484.483h10.256a.483.483 0 0 0 .484-.483v-2.35a.483.483 0 0 0-.484-.483m14.372 16.584H15.798a.483.483 0 0 0-.483.483v2.35a.483.483 0 0 0 .483.484h10.257a.484.484 0 0 0 .483-.484v-2.35a.483.483 0 0 0-.483-.483m.401-3.317H16.2a.483.483 0 0 0-.484.483v2.35a.483.483 0 0 0 .484.484h10.256a.484.484 0 0 0 .484-.483v-2.35a.484.484 0 0 0-.484-.484m-.71-3.317H15.489a.484.484 0 0 0-.483.484v2.35a.483.483 0 0 0 .483.483h10.257a.483.483 0 0 0 .483-.483v-2.35a.484.484 0 0 0-.483-.484m1.21-3.317H16.7a.483.483 0 0 0-.483.484v2.35a.484.484 0 0 0 .483.483h10.257a.483.483 0 0 0 .483-.483v-2.35a.483.483 0 0 0-.483-.484m12.87 9.95H29.569a.483.483 0 0 0-.483.484v2.35a.483.483 0 0 0 .483.484h10.257a.484.484 0 0 0 .483-.484v-2.35a.483.483 0 0 0-.483-.483"/></svg>