<svg xmlns="http://www.w3.org/2000/svg" width="42" height="42" fill="none"><g stroke="#0A4231" stroke-linecap="round" stroke-linejoin="round" stroke-miterlimit="10" stroke-width="1.23" clip-path="url(#a)"><path d="M14.051 8.86V10a4.1 4.1 0 0 0 1.691 3.319l4.776 3.47a.82.82 0 0 0 .964 0l4.776-3.47A4.1 4.1 0 0 0 27.95 10V3.624a2.05 2.05 0 0 0-2.05-2.05h-9.797a2.05 2.05 0 0 0-2.05 2.05v2.364"/><path d="M32.511 26.152a2.88 2.88 0 0 0-2.871-2.65h-2.532a2.88 2.88 0 0 0-2.882 2.882v1.102m.89 5.655h2.81m-13.851 0h2.745m.954-5.716v-1.041a2.88 2.88 0 0 0-2.882-2.882H12.36a2.88 2.88 0 0 0-2.871 2.65m10.748-14.47a1.24 1.24 0 0 1-.876-.364L16.853 8.81a1.24 1.24 0 0 1 1.753-1.753l1.631 1.63 3.157-3.156a1.24 1.24 0 1 1 1.753 1.754l-4.033 4.033a1.24 1.24 0 0 1-.877.363"/><path d="M8.193 30.066 5.425 27.3a2.77 2.77 0 0 1 0-3.92.91.91 0 0 1 1.29 0l5.406 5.405m12.995 4.357v-3.574a2.88 2.88 0 0 0-2.882-2.881h-2.532a2.88 2.88 0 0 0-2.882 2.881v3.574z"/><path d="m4.897 32.734 2.477 2.477a2.07 2.07 0 0 1 .605 1.462v3.344a.41.41 0 0 0 .41.41h5.276a.41.41 0 0 0 .41-.41v-7.91a3.3 3.3 0 0 0-.969-2.338l-6.39-6.39a.91.91 0 0 0-1.285-.006 3 3 0 0 0-.317.377v-6.022a3.19 3.19 0 0 0-3.174-3.19 1.317 1.317 0 0 0-1.325 1.314v11.145c0 .932.37 1.826 1.03 2.485l1.222 1.222m25.058 6.702v2.61a.41.41 0 0 0 .41.411h5.276a.41.41 0 0 0 .41-.41v-3.345c0-.548.217-1.073.605-1.461l5.73-5.73a3.51 3.51 0 0 0 1.029-2.484V15.852c0-.729-.596-1.317-1.325-1.313a3.19 3.19 0 0 0-3.174 3.19v6.02q-.141-.201-.317-.376a.91.91 0 0 0-1.285.005l-6.39 6.391a3.3 3.3 0 0 0-.969 2.338v2.428"/><path d="m33.808 30.066 2.767-2.767a2.77 2.77 0 0 0 0-3.92.91.91 0 0 0-1.29 0l-5.406 5.405M28.374 21.454a2.353 2.353 0 1 0 0-4.707 2.353 2.353 0 0 0 0 4.707M13.626 21.454a2.353 2.353 0 1 0 0-4.707 2.353 2.353 0 0 0 0 4.707M20.968 24.637a2.353 2.353 0 1 0 0-4.706 2.353 2.353 0 0 0 0 4.706"/></g><defs><clipPath id="a"><path fill="#fff" d="M0 0h42v42H0z"/></clipPath></defs></svg>