<svg xmlns="http://www.w3.org/2000/svg" width="42" height="42" fill="none"><g fill="#0A4231" clip-path="url(#a)"><path d="M36.68 20.508a.82.82 0 0 0 1.07-.08l4.01-4.018a.82.82 0 0 0-.09-1.237l-4.1-3.05V3.938a.82.82 0 0 0-.82-.82H31.5a.82.82 0 0 0-.82.82v3.061L21.49.162a.82.82 0 0 0-.98 0l-7.183 5.343a.82.82 0 1 0 .98 1.317L21 1.842l18.929 14.081-2.84 2.845-15.6-11.604a.82.82 0 0 0-.979 0L4.91 18.768l-2.839-2.845 7.356-5.472a.82.82 0 1 0-.98-1.316L.332 15.173A.82.82 0 0 0 .24 16.41l4.01 4.019a.82.82 0 0 0 1.07.079l.586-.436v6.506H1.641c-.905 0-1.641.736-1.641 1.64V40.36C0 41.264.736 42 1.64 42H7.22c.82 0 1.498-.604 1.62-1.39l3.814 1.344q.133.047.273.047h11.713c1.357 0 2.67-.482 3.706-1.358l8.873-7.509a3.3 3.3 0 0 0 1.173-2.348 3.3 3.3 0 0 0-.895-2.468 3.3 3.3 0 0 0-1.402-.89v-7.355zm-.75-9.605L32.32 8.22V4.758h3.61zM7.219 40.36H1.64V28.22h1.968v6.07a.82.82 0 0 0 1.641 0v-6.07h1.969v12.14m29.08-10.92c.32.34.48.785.454 1.251a1.67 1.67 0 0 1-.595 1.19l-8.873 7.51a4.1 4.1 0 0 1-2.646.97H13.066L8.86 38.876v-9.182h6.018c.811 0 1.597.238 2.272.688l5.487 3.659a1.06 1.06 0 0 1 .46.702 1.06 1.06 0 0 1-.189.819 1.07 1.07 0 0 1-1.325.334l-4.695-2.242a.82.82 0 1 0-.707 1.48l4.694 2.243a2.712 2.712 0 0 0 2.672-4.701l-5.487-3.66a5.7 5.7 0 0 0-3.182-.962H8.85a1.64 1.64 0 0 0-1.304-1.444v-7.76L21 8.844l13.453 10.007v8.472a3.3 3.3 0 0 0-1.526.723l-6.53 5.489a.82.82 0 0 0 1.056 1.255l6.53-5.488a1.687 1.687 0 0 1 2.316.137"/><path d="M12.03 7.344a.83.83 0 0 0-.58-.24.83.83 0 0 0-.58.24.826.826 0 0 0 0 1.16c.154.154.362.24.58.24a.83.83 0 0 0 .58-.24.83.83 0 0 0 .24-.58.83.83 0 0 0-.24-.58m12.107 8.508a.82.82 0 0 0-1.118.311l-5.459 9.67a.82.82 0 1 0 1.43.806l5.458-9.67a.82.82 0 0 0-.311-1.117m.476 6.207a2.79 2.79 0 0 0-2.789 2.789 2.79 2.79 0 0 0 2.79 2.789 2.79 2.79 0 0 0 2.788-2.79 2.79 2.79 0 0 0-2.789-2.788m0 3.937a1.15 1.15 0 0 1 0-2.297 1.15 1.15 0 0 1 1.149 1.149 1.15 1.15 0 0 1-1.149 1.148M17.395 14.11a2.79 2.79 0 0 0-2.79 2.79 2.79 2.79 0 0 0 2.79 2.789 2.79 2.79 0 0 0 2.789-2.79 2.79 2.79 0 0 0-2.789-2.789m0 3.938a1.15 1.15 0 0 1-1.148-1.149 1.15 1.15 0 1 1 1.148 1.148M5.051 36.949a.83.83 0 0 0-.58-.24.823.823 0 0 0-.58 1.4c.152.153.364.24.58.24a.83.83 0 0 0 .58-.24.83.83 0 0 0 .24-.58.83.83 0 0 0-.24-.58"/></g><defs><clipPath id="a"><path fill="#fff" d="M0 0h42v42H0z"/></clipPath></defs></svg>