<svg xmlns="http://www.w3.org/2000/svg" width="42" height="42" fill="none"><path fill="#0A4231" d="m25.55 20.683-.566-3.395 1.922-1.922.849.848a.655.655 0 0 0 .928 0l2.625-2.625a.656.656 0 0 0 0-.928l-9.844-9.844a.676.676 0 0 0-.928 0l-2.625 2.625a.655.655 0 0 0 0 .928l.849.849L8.53 17.447l-.848-.848a.655.655 0 0 0-.928 0L4.13 19.224a.656.656 0 0 0 0 .928l8.723 8.723H5.25c-1.39 0-2.625 1.468-2.625 2.625v1.313h-.013c-1.042 0-1.956.988-1.956 2.114v1.75c0 1.107.896 2.042 1.956 2.042h18.84c1.005 0 2.173-.892 2.173-2.042v-1.75c0-1.067-1.076-2.114-2.172-2.114h-.457l-.002-1.548c-.107-1.083-1.3-2.39-2.619-2.39h-2.353l1.505-1.505a.655.655 0 0 0 0-.928l-.85-.848 2.58-2.579 3.392.566 14.816 15.167a2.1 2.1 0 0 0 1.502.627h.251a2.09 2.09 0 0 0 1.958-1.31 2.11 2.11 0 0 0-.459-2.333zm-3.238 14.244v1.75c0 .327-.473.73-.86.73H2.613c-.337 0-.643-.348-.643-.73v-1.75c0-.397.325-.802.643-.802h18.84c.37 0 .86.458.86.802m-2.628-3.597v1.483H3.937V31.5c0-.47.662-1.312 1.313-1.312h13.125c.653 0 1.272.798 1.31 1.142M21 4.21l8.916 8.915-1.697 1.697-8.916-8.916zm-6.562 24.393-8.916-8.915 1.697-1.697 8.916 8.915zM9.459 18.375 19.688 8.147l6.29 6.29L15.75 24.667zm14.385.053.39 2.347-1.49 1.491-2.347-.391zm16.12 19.133a.79.79 0 0 1-.745.502h-.252a.8.8 0 0 1-.566-.235L23.89 22.974l1.049-1.048L39.79 36.66a.81.81 0 0 1 .174.901"/><path fill="#0A4231" d="m12.002 17.91 6.561-6.56.928.927-6.561 6.561z"/></svg>