<svg xmlns="http://www.w3.org/2000/svg" width="80" height="80" fill="none"><g fill="#D9B369" clip-path="url(#a)"><path d="M38.153 55.361a1.08 1.08 0 0 0-1.512.232l-.134.182a1.082 1.082 0 0 0 1.742 1.283l.136-.184a1.08 1.08 0 0 0-.232-1.513"/><path d="m38.436 65.655-2.782-5.06 2.598-3.539a1.08 1.08 0 0 0-1.036-1.71 1.08 1.08 0 0 0-.709.43L33.5 59.87a1.08 1.08 0 0 0-.076 1.162l3.116 5.665a1.082 1.082 0 0 0 1.896-1.043m8.065-5.784-2.995-4.079a1.082 1.082 0 0 0-1.744 1.282l2.585 3.521-2.764 5.026a1.082 1.082 0 0 0 1.897 1.044l3.097-5.632a1.08 1.08 0 0 0-.076-1.162m1.715-17.004a1.08 1.08 0 0 0-1.117.067c-.644.443-1.241.913-1.776 1.396-2.912 2.632-5.678 2.276-5.787 2.26a1 1 0 0 0-.197-.013c-1.15.03-3.226-1.022-5.42-2.746q-.5-.39-1.025-.747a1.082 1.082 0 0 0-1.687.897v3.712a1.08 1.08 0 0 0 .5.912l7.672 5.127.004.002.02.014a1.08 1.08 0 0 0 1.208-.008l.01-.007.013-.009 7.655-5.114a1.08 1.08 0 0 0 .505-.916v-3.87a1.08 1.08 0 0 0-.578-.957m-1.586 4.248L40 51.545l-6.629-4.43v-.985c1.614 1.173 3.989 2.612 5.925 2.612h.012c.65.072 3.964.267 7.322-2.679z"/><path d="M41.068 52.668a1.083 1.083 0 0 0-1.94-.463l-2.487 3.388a1.08 1.08 0 0 0 .872 1.722 1.08 1.08 0 0 0 .873-.441l2.474-3.37a1.08 1.08 0 0 0 .208-.836m15.418-34.884c-.022-.17-.529-3.828-3.972-5.271.1-.643.09-1.468-.319-2.272-.548-1.08-1.63-1.783-3.215-2.091a1 1 0 0 0-.207-.02H34.25c-5.897 0-10.695 4.798-10.695 10.695v5.699c0 1.485.506 2.933 1.425 4.077.455.567 1.016 1.558 1.1 3.055a1.08 1.08 0 0 0 1.112 1.02 1.08 1.08 0 0 0 1.051-1.081v-7.43c.735-3.039 3.242-3.63 3.674-3.71h4.697c.553 0 1.096-.084 1.616-.25.893-.287 2.31-.814 3.342-1.206a3.14 3.14 0 0 1 2.151-.027l5.03 1.765c2.514.928 2.963 3.135 3.018 3.482v8.917a1.082 1.082 0 0 0 2.153.16c.004-.029.436-2.82 1.83-5.054a4.85 4.85 0 0 0 .74-2.565v-7.756q0-.07-.008-.137m-2.156 7.893c0 .483-.136.963-.395 1.39v-2.922a1 1 0 0 0-.006-.117c-.017-.157-.464-3.866-4.437-5.325l-.015-.005-5.037-1.769a5.3 5.3 0 0 0-3.637.047c-1.444.548-2.563.952-3.234 1.168-.309.098-.63.148-.955.147H31.83q-.07 0-.139.009c-.183.024-4.499.637-5.585 5.506a1 1 0 0 0-.026.235v2.227a4.4 4.4 0 0 1-.36-1.744v-5.699c0-4.704 3.827-8.53 8.53-8.53h14.415c.597.126 1.322.387 1.597.918.337.65-.047 1.544-.047 1.545a1.082 1.082 0 0 0 .726 1.512c2.755.663 3.317 3.305 3.39 3.732z"/><path d="M53.928 24.028c-.017-.157-.464-3.865-4.437-5.325l-.015-.005-5.036-1.768a5.3 5.3 0 0 0-3.638.046c-1.444.548-2.563.952-3.234 1.168-.309.098-.63.148-.955.147h-4.785q-.07 0-.139.009c-.183.024-4.499.637-5.585 5.506a1 1 0 0 0-.026.235v9.326c.008.323.236 7.954 5.509 11.444l.027.02.069.047q.46.312.898.655c1.535 1.206 4.43 3.21 6.714 3.21h.012c.124.013.346.031.646.031 1.294 0 4.055-.34 6.82-2.84.465-.418.986-.829 1.552-1.218l.081-.057.08-.056c1.759-1.181 4.805-4.229 5.444-11.37q.005-.05.005-.097v-8.991q0-.06-.007-.117m-2.158 9.059c-.59 6.445-3.335 8.944-4.49 9.72l-.123.084-.06.042a17 17 0 0 0-1.775 1.396c-2.9 2.623-5.659 2.28-5.794 2.26a1 1 0 0 0-.19-.011c-1.15.029-3.226-1.023-5.421-2.747-.336-.263-.68-.515-1.023-.746l-.027-.019-.082-.057c-4.255-2.816-4.533-9.406-4.543-9.681v-9.163c.738-3.05 3.26-3.634 3.672-3.71h4.7c.552 0 1.096-.084 1.615-.25.893-.287 2.31-.814 3.342-1.206a3.14 3.14 0 0 1 2.152-.027l5.029 1.765c2.514.928 2.963 3.135 3.018 3.482zM40.967 52.362a1.084 1.084 0 0 0-1.84-.156l-2.592 3.53a1.083 1.083 0 0 0 1.743 1.283l2.593-3.518a1.12 1.12 0 0 0 .21-.654c0-.168-.039-.334-.114-.485m.07 17.423a1.08 1.08 0 0 0-1.512-.051l-.248.226a1.08 1.08 0 0 0-.214 1.326l.007.014a1.082 1.082 0 0 0 1.71.237l.24-.24a1.08 1.08 0 0 0 .017-1.512"/><path d="m40.723 69.96-.247-.226a1.082 1.082 0 0 0-1.496 1.564l.24.24a1.08 1.08 0 0 0 1.714-.245l.008-.014a1.08 1.08 0 0 0-.219-1.319"/><path d="M40.74 69.977v-.001a1.083 1.083 0 0 0-1.478-.002l-.003.003a1.08 1.08 0 0 0-.034 1.567l.012.011a1.08 1.08 0 0 0 1.528-.002l.011-.011a1.08 1.08 0 0 0-.036-1.565m-.39-18.178a1.09 1.09 0 0 0-1.212.406 1.08 1.08 0 0 0 .884 1.707 1.08 1.08 0 0 0 1.084-1.082v-.003c0-.47-.306-.885-.755-1.028"/><path d="m40.88 52.196-.01-.012a1.081 1.081 0 0 0-1.952.643v.019a1.08 1.08 0 0 0 1.084 1.077 1.1 1.1 0 0 0 .912-.49 1.08 1.08 0 0 0-.035-1.237"/><path d="M52.873 48.797a1.08 1.08 0 0 0-.647-.635l-4.15-1.487a1.08 1.08 0 0 0-.966.118l-7.687 5.137-.007.004.604.898-.617-.889a1.08 1.08 0 0 0-.275 1.544l5.628 7.665a1.08 1.08 0 0 0 1.82-.12l6.233-11.33a1.08 1.08 0 0 0 .064-.905m-7.376 9.708-3.956-5.388 6.318-4.221 2.442.875z"/><path d="M41.065 52.66a1.08 1.08 0 0 0-.463-.712l-7.713-5.154a1.08 1.08 0 0 0-.967-.12l-4.148 1.488a1.082 1.082 0 0 0-.583 1.54l6.232 11.331a1.082 1.082 0 0 0 1.82.119l3.008-4.096.007-.01 2.613-3.56a1.08 1.08 0 0 0 .194-.826m-4.559 3.115-.008.01-1.996 2.72-4.804-8.734 2.442-.875 6.318 4.221zm35.44 11.495-1.396-8.43a7.46 7.46 0 0 0-4.818-5.79l-13.505-4.887a1.082 1.082 0 0 0-1.336 1.5l2.82 5.655-2.767.043a1.082 1.082 0 0 0-.942 1.584l1.135 2.166-11.613 10.624-.035.033-.24.24a1.08 1.08 0 0 0-.184 1.284l.009.015a1.08 1.08 0 0 0 .949.563h28.021a3.95 3.95 0 0 0 3.813-2.9 3.95 3.95 0 0 0 .088-1.7m-2.536 1.804a1.79 1.79 0 0 1-1.365.632H42.76l10.452-9.56a1.08 1.08 0 0 0 .228-1.3l-.706-1.349 2.728-.042a1.083 1.083 0 0 0 .952-1.565l-2.38-4.772 10.961 3.966a5.3 5.3 0 0 1 3.42 4.11l1.395 8.43a1.79 1.79 0 0 1-.4 1.45"/><path d="m40.75 69.986-.013-.011a1.083 1.083 0 0 0-1.493.039l-.011.011A1.081 1.081 0 0 0 40 71.87h.024a1.083 1.083 0 0 0 .726-1.884"/><path d="M40.716 69.955a1.082 1.082 0 0 0-1.673.283l-.007.014a1.08 1.08 0 0 0 .17 1.273l.005.004a1.08 1.08 0 0 0 1.506.047l.012-.01q.148-.136.239-.316c.217-.436.11-.97-.252-1.296"/><path d="m40.763 70.02-.005-.004-.008-.009-.24-.24-.035-.033-11.613-10.623 1.135-2.167a1.083 1.083 0 0 0-.942-1.584l-2.767-.042 2.82-5.655a1.082 1.082 0 0 0-1.336-1.5l-13.504 4.886a7.46 7.46 0 0 0-4.819 5.791l-1.395 8.43a3.95 3.95 0 0 0 2.239 4.234 3.95 3.95 0 0 0 1.662.366H40a1.082 1.082 0 0 0 .763-1.85m-28.808-.314a1.786 1.786 0 0 1-1.726-1.314 1.8 1.8 0 0 1-.04-.77l1.396-8.428a5.3 5.3 0 0 1 3.419-4.11l10.96-3.966-2.38 4.772a1.082 1.082 0 0 0 .953 1.565l2.728.042-.706 1.348a1.08 1.08 0 0 0 .228 1.3l10.451 9.56z"/><path d="M43.683 56.695a1.08 1.08 0 0 0-.178-.903l-2.633-3.586a1.08 1.08 0 0 0-1.209-.382 1.08 1.08 0 0 0-.569.44l-2.585 3.508a1.08 1.08 0 0 0-.018 1.262l1.1 1.581-1.172 7.392c-.038.237.005.48.12.691l2.513 4.568a1.082 1.082 0 0 0 1.896 0l2.531-4.602c.088-.16.134-.339.134-.521q0-.087-.013-.17l-1.168-7.358 1.09-1.563q.112-.165.16-.357M40 68.499l-1.386-2.519 1.183-7.456a1.08 1.08 0 0 0-.18-.788l-.907-1.302 1.293-1.755 1.3 1.77-.896 1.287c-.16.23-.224.512-.18.788l1.177 7.422z"/></g><defs><clipPath id="a"><path fill="#fff" d="M8 8h64v64H8z"/></clipPath></defs></svg>