<svg xmlns="http://www.w3.org/2000/svg" width="80" height="80" fill="none"><g fill="#D9B369" clip-path="url(#a)"><path d="M63.336 11H33.883a5.67 5.67 0 0 0-5.664 5.664V26.86H16.664A5.67 5.67 0 0 0 11 32.523V56.54a5.67 5.67 0 0 0 5.664 5.664h2.266v5.664a1.134 1.134 0 0 0 1.933.801l6.466-6.465h18.788a5.67 5.67 0 0 0 5.664-5.664V46.344h2.266v5.664a1.134 1.134 0 0 0 1.934.8l6.465-6.464h1.796c2.89 0 4.758-2.224 4.758-5.664V16.664A5.67 5.67 0 0 0 63.336 11m-13.82 45.54a3.4 3.4 0 0 1-3.399 3.398H26.86c-.3 0-.588.119-.8.331l-4.864 4.863V61.07c0-.625-.507-1.133-1.133-1.133h-3.398a3.4 3.4 0 0 1-3.398-3.398V32.523a3.4 3.4 0 0 1 3.398-3.398h29.453a3.4 3.4 0 0 1 3.399 3.398zm17.218-15.86c0 1.269-.323 3.398-2.492 3.398h-2.265c-.3 0-.589.12-.801.332l-4.864 4.863v-4.062c0-.626-.507-1.133-1.132-1.133H51.78v-8.156h7.024a1.133 1.133 0 0 0 0-2.266H51.78v-1.133a5.67 5.67 0 0 0-5.664-5.664H30.484V16.664a3.4 3.4 0 0 1 3.399-3.398h29.453a3.4 3.4 0 0 1 3.398 3.398z"/><path d="M58.805 20.063h-20.39a1.133 1.133 0 1 0 0 2.265h20.39a1.133 1.133 0 1 0 0-2.265m0 6.796h-4.532a1.133 1.133 0 1 0 0 2.266h4.532a1.133 1.133 0 0 0 0-2.266m-37.61 11.328c.625 0 1.133-.508 1.133-1.132s-.508-1.133-1.133-1.133c-.624 0-1.133.509-1.133 1.133s.51 1.133 1.133 1.133m20.39-2.265H25.728c-.625 0-1.133.509-1.133 1.133s.508 1.133 1.133 1.133h15.859c.624 0 1.133-.51 1.133-1.133 0-.624-.509-1.133-1.133-1.133m0 6.797H30.259a1.133 1.133 0 1 0 0 2.265h11.328a1.133 1.133 0 1 0 0-2.265m-20.39 2.265h4.532a1.133 1.133 0 0 0 0-2.265h-4.532a1.133 1.133 0 1 0 0 2.265m11.328 4.532H21.422a1.133 1.133 0 1 0 0 2.265h11.101a1.133 1.133 0 1 0 0-2.265"/></g><defs><clipPath id="a"><path fill="#fff" d="M11 11h58v58H11z"/></clipPath></defs></svg>