<svg xmlns="http://www.w3.org/2000/svg" width="80" height="80" fill="none"><path fill="#D9B369" fill-rule="evenodd" d="M9.188 19v42.5a5.31 5.31 0 0 0 5.312 5.313h51a5.31 5.31 0 0 0 5.313-5.313V19a5.31 5.31 0 0 0-5.313-5.312h-3.246c-.53-4.779-4.586-8.5-9.504-8.5s-8.975 3.721-9.504 8.5h-6.492c-.53-4.779-4.586-8.5-9.504-8.5s-8.975 3.721-9.504 8.5H14.5A5.31 5.31 0 0 0 9.188 19m59.5 7.438V19a3.187 3.187 0 0 0-3.188-3.187H49.744a3.19 3.19 0 0 0 3.006 2.124 3.19 3.19 0 0 1 0 6.375c-4.918 0-8.975-3.721-9.504-8.5H24.244a3.19 3.19 0 0 0 3.006 2.126 3.19 3.19 0 0 1 0 6.375c-4.918 0-8.975-3.722-9.504-8.5H14.5A3.187 3.187 0 0 0 11.313 19v7.438H27.25a1.062 1.062 0 1 1 0 2.125H11.313V61.5a3.187 3.187 0 0 0 3.187 3.188h51a3.187 3.187 0 0 0 3.188-3.188V28.563H31.5a1.062 1.062 0 1 1 0-2.125zm-8.576-12.75h-2.156a5.315 5.315 0 0 0-10.519 1.062 5.314 5.314 0 0 0 5.313 5.313 1.062 1.062 0 1 1 0 2.125 7.44 7.44 0 0 1-7.437-7.438 7.44 7.44 0 0 1 7.437-7.437 7.444 7.444 0 0 1 7.362 6.375m-25.5 0h-2.156a5.314 5.314 0 0 0-10.519 1.062 5.314 5.314 0 0 0 5.313 5.313 1.062 1.062 0 1 1 0 2.125 7.44 7.44 0 0 1-7.437-7.438 7.44 7.44 0 0 1 7.437-7.437 7.444 7.444 0 0 1 7.362 6.375m-4.356 0a3.19 3.19 0 0 0-6.012 0zm25.5 0a3.19 3.19 0 0 0-6.012 0z" clip-rule="evenodd"/><path fill="#D9B369" fill-rule="evenodd" d="M26.188 38.125A3.187 3.187 0 0 0 23 34.938h-4.25a3.187 3.187 0 0 0-3.187 3.187v4.25a3.187 3.187 0 0 0 3.187 3.188H23a3.187 3.187 0 0 0 3.188-3.188zm-2.125 0v4.25A1.06 1.06 0 0 1 23 43.438h-4.25a1.06 1.06 0 0 1-1.062-1.063v-4.25a1.06 1.06 0 0 1 1.062-1.062H23a1.06 1.06 0 0 1 1.063 1.062m2.125 12.75A3.187 3.187 0 0 0 23 47.688h-4.25a3.187 3.187 0 0 0-3.187 3.187v4.25a3.187 3.187 0 0 0 3.187 3.188H23a3.187 3.187 0 0 0 3.188-3.188zm-2.125 0v4.25A1.06 1.06 0 0 1 23 56.188h-4.25a1.06 1.06 0 0 1-1.062-1.063v-4.25a1.06 1.06 0 0 1 1.062-1.062H23a1.06 1.06 0 0 1 1.063 1.062m14.875-12.75a3.187 3.187 0 0 0-3.188-3.187H31.5a3.187 3.187 0 0 0-3.187 3.187v4.25a3.187 3.187 0 0 0 3.187 3.188h4.25a3.187 3.187 0 0 0 3.188-3.188zm-2.126 0v4.25a1.06 1.06 0 0 1-1.062 1.063H31.5a1.06 1.06 0 0 1-1.062-1.063v-4.25a1.06 1.06 0 0 1 1.062-1.062h4.25a1.06 1.06 0 0 1 1.063 1.062m2.126 12.75a3.187 3.187 0 0 0-3.188-3.187H31.5a3.187 3.187 0 0 0-3.187 3.187v4.25a3.187 3.187 0 0 0 3.187 3.188h4.25a3.187 3.187 0 0 0 3.188-3.188zm-2.126 0v4.25a1.06 1.06 0 0 1-1.062 1.063H31.5a1.06 1.06 0 0 1-1.062-1.063v-4.25a1.06 1.06 0 0 1 1.062-1.062h4.25a1.06 1.06 0 0 1 1.063 1.062m14.876-12.75a3.187 3.187 0 0 0-3.188-3.187h-4.25a3.187 3.187 0 0 0-3.187 3.187v4.25a3.187 3.187 0 0 0 3.187 3.188h4.25a3.187 3.187 0 0 0 3.188-3.188zm-2.126 0v4.25a1.06 1.06 0 0 1-1.062 1.063h-4.25a1.06 1.06 0 0 1-1.062-1.063v-4.25a1.06 1.06 0 0 1 1.062-1.062h4.25a1.06 1.06 0 0 1 1.063 1.062m2.126 12.75a3.187 3.187 0 0 0-3.188-3.187h-4.25a3.187 3.187 0 0 0-3.187 3.187v4.25a3.187 3.187 0 0 0 3.187 3.188h4.25a3.187 3.187 0 0 0 3.188-3.188zm-2.126 0v4.25a1.06 1.06 0 0 1-1.062 1.063h-4.25a1.06 1.06 0 0 1-1.062-1.063v-4.25a1.06 1.06 0 0 1 1.062-1.062h4.25a1.06 1.06 0 0 1 1.063 1.062m14.876-12.75a3.187 3.187 0 0 0-3.188-3.187H57a3.187 3.187 0 0 0-3.187 3.187v4.25A3.187 3.187 0 0 0 57 45.563h4.25a3.187 3.187 0 0 0 3.188-3.188zm-2.126 0v4.25a1.06 1.06 0 0 1-1.062 1.063H57a1.06 1.06 0 0 1-1.062-1.063v-4.25A1.06 1.06 0 0 1 57 37.063h4.25a1.06 1.06 0 0 1 1.063 1.062m2.126 12.75a3.187 3.187 0 0 0-3.188-3.187H57a3.187 3.187 0 0 0-3.187 3.187v4.25A3.187 3.187 0 0 0 57 58.313h4.25a3.187 3.187 0 0 0 3.188-3.188zm-2.126 0v4.25a1.06 1.06 0 0 1-1.062 1.063H57a1.06 1.06 0 0 1-1.062-1.063v-4.25A1.06 1.06 0 0 1 57 49.813h4.25a1.06 1.06 0 0 1 1.063 1.062" clip-rule="evenodd"/></svg>