<svg xmlns="http://www.w3.org/2000/svg" width="60" height="60" fill="none"><g fill="#D9B369" clip-path="url(#a)"><path d="M37.488 21.5v-1.925a1.61 1.61 0 0 0-1.608-1.608H20.253a1.61 1.61 0 0 0-1.608 1.608V21.5a1.61 1.61 0 0 0 1.608 1.608H35.88a1.61 1.61 0 0 0 1.608-1.608m-17.378 0v-1.925c0-.08.064-.144.143-.144H35.88c.08 0 .143.065.143.144V21.5c0 .08-.064.144-.143.144H20.253a.144.144 0 0 1-.143-.144m3.192-13.22h-6.585a.732.732 0 1 0 0 1.466h6.586a.732.732 0 1 0 0-1.465m3.842 3.184H16.717a.732.732 0 1 0 0 1.465h10.427a.732.732 0 1 0 0-1.465m.733 3.915a.73.73 0 0 0-.733-.732H16.717a.732.732 0 1 0 0 1.465h10.427a.73.73 0 0 0 .733-.733m2.539 10.91a.73.73 0 0 0-.733-.732H19.377a.732.732 0 1 0 0 1.465h10.306a.733.733 0 0 0 .733-.733m2.264 18.497a6.275 6.275 0 0 0 6.267-6.267 6.275 6.275 0 0 0-6.267-6.268 6.275 6.275 0 0 0-6.268 6.268 6.275 6.275 0 0 0 6.268 6.267m0-11.07a4.81 4.81 0 0 1 4.803 4.803 4.81 4.81 0 0 1-4.803 4.803 4.81 4.81 0 0 1-4.803-4.803 4.81 4.81 0 0 1 4.803-4.803"/><path d="M32.68 41.872a.732.732 0 1 0 0-1.465 1.89 1.89 0 0 1-1.889-1.888 1.89 1.89 0 0 1 1.888-1.888 1.89 1.89 0 0 1 1.888 1.888.732.732 0 1 0 1.465 0 3.357 3.357 0 0 0-3.353-3.353 3.357 3.357 0 0 0-3.353 3.353 3.357 3.357 0 0 0 3.353 3.352m8.612-11.593a.733.733 0 0 0-1.035 1.036l1.805 1.805a.73.73 0 0 0 1.195-.238.73.73 0 0 0-.16-.798z"/><path d="M53.35 19.517a4.73 4.73 0 0 0-3.122-1.137.732.732 0 0 0 .006 1.465h.006a3.265 3.265 0 0 1 2.338 5.573 3.23 3.23 0 0 1-2.425.954 1.99 1.99 0 0 0-1.359.47l-3.965 3.352-1.647-1.647 3.353-3.965c.32-.379.488-.863.47-1.358a3.27 3.27 0 0 1 1.011-2.48.732.732 0 1 0-1.011-1.06 4.74 4.74 0 0 0-1.464 3.591.53.53 0 0 1-.124.361l-2.221 2.627V8.782A3.786 3.786 0 0 0 39.414 5H19.377a.732.732 0 1 0 0 1.465h20.037a2.32 2.32 0 0 1 2.317 2.317v18.314l-1.981-1.981a1.67 1.67 0 0 0-1.567-.438l-2.15.528a1.66 1.66 0 0 0-.778.438l-.974.974a1.65 1.65 0 0 0-.485 1.172c0 .442.172.859.485 1.171l7.45 7.45v10.284H20.79l-.05.002-.048-.002a.73.73 0 0 0-.732.732v3.197c0 1.538-1.2 2.801-2.712 2.904a3.33 3.33 0 0 1-3.113-3.319V9.568c0-1.158-.446-2.271-1.218-3.103h3.532a.732.732 0 1 0 0-1.465H9.567A4.57 4.57 0 0 0 5 9.567v5.105c0 .78.635 1.415 1.415 1.415h6.254v34.536A4.38 4.38 0 0 0 17.046 55h8.352a.732.732 0 1 0 0-1.465H20.31a4.36 4.36 0 0 0 1.113-2.912v-2.464h26.439v.687a4.694 4.694 0 0 1-4.69 4.69H28.496a.732.732 0 1 0 0 1.464h14.678a6.16 6.16 0 0 0 6.154-6.154v-1.42a.73.73 0 0 0-.733-.732h-5.398v-8.819l1.22 1.22a1.65 1.65 0 0 0 1.172.486 1.65 1.65 0 0 0 1.171-.485l.975-.975c.214-.214.365-.482.437-.776l.528-2.152c.137-.559-.03-1.16-.437-1.566l-2.394-2.393 3.872-3.274c.101-.084.23-.129.36-.124a4.74 4.74 0 0 0 3.514-1.382c1.905-1.905 1.874-5.096-.265-6.937M6.464 14.622V9.567c0-1.71 1.39-3.101 3.1-3.102h.002a3.106 3.106 0 0 1 3.102 3.102v5.056zm40.812 20.222-.529 2.151a.2.2 0 0 1-.05.09l-.975.975a.2.2 0 0 1-.136.056.2.2 0 0 1-.135-.056L35.317 27.925a.2.2 0 0 1-.057-.136c0-.036.01-.09.057-.136l.974-.974a.2.2 0 0 1 .09-.051l2.151-.528a.2.2 0 0 1 .182.05l8.512 8.513a.2.2 0 0 1 .05.181"/></g><defs><clipPath id="a"><path fill="#fff" d="M5 5h50v50H5z"/></clipPath></defs></svg>