<svg xmlns="http://www.w3.org/2000/svg" width="60" height="60" fill="none"><path fill="#D9B369" d="M21.875 12.125h5.688v.813a2.438 2.438 0 1 0 4.875 0v-3.25a2.438 2.438 0 1 0-4.876 0v.812h-5.687a.812.812 0 1 0 0 1.625m7.313-2.437a.812.812 0 1 1 1.625 0v3.25a.812.812 0 1 1-1.625 0z"/><path fill="#D9B369" d="M48.688 10.5h-.813a.812.812 0 1 0 0 1.625h.813a2.44 2.44 0 0 1 2.437 2.438v5.687H8.875v-5.687a2.44 2.44 0 0 1 2.438-2.438h3.25v.813a2.438 2.438 0 1 0 4.874 0v-3.25a2.438 2.438 0 1 0-4.875 0v.812h-3.25a4.067 4.067 0 0 0-4.062 4.063v32.5a4.07 4.07 0 0 0 4.063 4.062h7.003a.813.813 0 0 0 0-1.625h-7.003a2.44 2.44 0 0 1-2.438-2.437V21.875h42.25v25.188a2.44 2.44 0 0 1-2.437 2.437H41.44a.812.812 0 1 0 0 1.625h7.248a4.067 4.067 0 0 0 4.062-4.062v-32.5a4.067 4.067 0 0 0-4.062-4.063m-32.5-.812a.812.812 0 1 1 1.625 0v3.25a.812.812 0 1 1-1.625 0z"/><path fill="#D9B369" d="M34.875 12.125h5.688v.813a2.438 2.438 0 1 0 4.874 0v-3.25a2.438 2.438 0 1 0-4.874 0v.812h-5.688a.812.812 0 1 0 0 1.625m7.313-2.437a.812.812 0 1 1 1.624 0v3.25a.812.812 0 1 1-1.624 0zm.229 23.25a13.9 13.9 0 0 0-5.377-5.883.812.812 0 1 0-.83 1.397 12.27 12.27 0 0 1 4.746 5.198c2.826 5.794.772 12.633-4.58 15.242-5.355 2.612-12.011.023-14.838-5.77-2.827-5.795-.769-12.635 4.587-15.247a10.26 10.26 0 0 1 7.28-.616.812.812 0 1 0 .439-1.564 11.9 11.9 0 0 0-8.431.72q-.624.305-1.205.684-.665.227-1.297.533c-6.157 3.003-8.548 10.815-5.328 17.415s10.847 9.525 17.004 6.523q.62-.305 1.2-.683.667-.227 1.301-.534c6.157-3.003 8.548-10.815 5.329-17.415M19.043 44.334a11.88 11.88 0 0 1 .628-11.774 13.9 13.9 0 0 0 9.047 18.536 11.86 11.86 0 0 1-9.675-6.762"/><path fill="#D9B369" d="M29.955 47.372a8 8 0 0 0 5.391-.59c4.244-2.07 5.86-7.521 3.601-12.152-2.259-4.632-7.549-6.714-11.793-4.645-4.248 2.072-5.867 7.526-3.609 12.156a10 10 0 0 0 3.15 3.75.814.814 0 0 0 1.285-.47.81.81 0 0 0-.34-.852 8.4 8.4 0 0 1-2.635-3.14c-1.865-3.825-.582-8.303 2.86-9.983 3.44-1.677 7.756.071 9.621 3.896s.586 8.302-2.852 9.98a6.4 6.4 0 0 1-4.308.468.812.812 0 0 0-.37 1.582"/><path fill="#D9B369" d="M33.189 43.888a.72.72 0 0 1-.974-.31l-1.063-2.055-.704.365a.542.542 0 0 1-.498-.964l.703-.364-.417-.807-.796.412a.439.439 0 0 1-.403-.78l.796-.412-2.418-4.672a.5.5 0 0 1 .215-.674l1.505-.778q1.023-.53 1.986-.657.964-.129 1.755.286.798.39 1.328 1.413.537 1.04.411 1.95a3.16 3.16 0 0 1-.77 1.654q-.653.728-1.66 1.25l-.666.344.418.807 2.799-1.448a.542.542 0 1 1 .498.963l-2.799 1.449 1.063 2.054a.72.72 0 0 1-.31.974m-2.073-5.578.52-.27q1.17-.605 1.517-1.484.364-.889-.182-1.944-.58-1.121-1.465-1.24-.87-.127-2.038.478l-.52.269z"/></svg>