<svg xmlns="http://www.w3.org/2000/svg" width="60" height="60" fill="none"><path fill="#D9B369" d="M44.572 7.012c-.47 0-.956.061-1.44.18l.372 1.517c2.954-.725 5.53 1.523 5.53 4.329 0 6.57-7.483 11.414-10.602 12.325l.438 1.5c3.962-1.158 11.727-6.568 11.728-13.825a6.03 6.03 0 0 0-6.026-6.026m-33.61 6.026c0-2.806 2.575-5.057 5.53-4.328l.374-1.517C12.956 6.232 9.4 9.244 9.4 13.038c0 7.257 7.766 12.667 11.727 13.825l.438-1.5c-3.12-.912-10.603-5.754-10.603-12.325m21.746 21.044H27.29a.78.78 0 0 0-.782.781v2.965a.783.783 0 0 0 .946.763c1.61-.347 3.48-.347 5.09 0a.79.79 0 0 0 .869-.426.8.8 0 0 0 .077-.337v-2.965a.78.78 0 0 0-.782-.781m-.781 2.815a14.4 14.4 0 0 0-3.856 0v-1.253h3.856zm8.616 13.654H19.454a.78.78 0 0 0-.781.782v2.886c0 .432.35.781.781.781h21.09a.78.78 0 0 0 .78-.781v-2.886a.78.78 0 0 0-.78-.782m-.78 2.886H20.235v-1.323h19.526z"/><path fill="#D9B369" d="M39.191 39.544H20.807a.78.78 0 0 0-.782.782v11.007c0 .432.35.781.782.781H39.19c.431 0 .781-.35.781-.781V40.326a.78.78 0 0 0-.781-.782m-.781 11.008H21.588v-9.445H38.41z"/><path fill="#D9B369" d="M36.067 42.669H23.932a.78.78 0 0 0-.781.781v4.757c0 .432.35.781.781.781h12.135c.431 0 .781-.35.781-.781V43.45a.78.78 0 0 0-.78-.781m-.781 4.757H24.713V44.23h10.573zm8.482-42.033A1.3 1.3 0 0 0 42.831 5H17.169a1.31 1.31 0 0 0-.936.39c-.25.253-.387.587-.385.941.005.532.026 1.056.05 1.652q.03.721.08 1.432c.39 5.786 1.678 11.073 3.728 15.289q.448.921.968 1.805c1.565 2.658 3.358 4.565 5.33 5.67a.78.78 0 0 0 .67.044q.27.008.615.006h6.048a.79.79 0 0 0 .657-.05c1.972-1.103 3.765-3.011 5.331-5.67q.517-.883.966-1.803c2.051-4.22 3.34-9.507 3.73-15.29.03-.475.058-.95.078-1.435.022-.546.044-1.093.05-1.646a1.3 1.3 0 0 0-.381-.942m-1.23 2.526q-.03.696-.077 1.391c-.375 5.585-1.612 10.672-3.576 14.711a25 25 0 0 1-.907 1.695c-1.333 2.264-2.881 3.968-4.493 4.95h-6.971c-1.612-.982-3.16-2.686-4.493-4.95a24 24 0 0 1-.908-1.695c-1.963-4.037-3.199-9.124-3.575-14.71a56 56 0 0 1-.08-1.463c-.017-.427-.034-.854-.042-1.285h25.166c-.008.455-.026.905-.044 1.356"/><path fill="#D9B369" d="M39.386 8.383c-.013.245-.027.476-.042.705-.326 4.84-1.428 9.403-3.103 12.847q-.35.722-.757 1.414c-.925 1.572-1.963 2.792-2.999 3.53l.906 1.273c1.215-.864 2.403-2.25 3.44-4.01a22 22 0 0 0 .816-1.523c1.76-3.621 2.916-8.39 3.256-13.428.016-.238.03-.475.044-.727zm-6.677 22.283h-5.454c-1.314 0-1.445 2.55-1.445 2.575s.153 2.404 1.48 2.404h5.455c1.293 0 1.446-2.38 1.446-2.404s-.13-2.575-1.482-2.575m-.285 3.417h-4.848c-.102-.256-.201-.682-.204-.84.002-.19.116-.712.227-1.014h4.802c.112.302.225.823.227 1.012-.002.16-.102.586-.204.842m.45 2.981a14.1 14.1 0 0 0-5.748 0c-2.588.56-4.134 1.78-4.134 3.261 0 .432.35.781.781.781h12.454c.43 0 .78-.349.78-.781 0-1.482-1.544-2.7-4.133-3.26m-7.768 2.48c.483-.363 1.275-.72 2.35-.953a12.5 12.5 0 0 1 5.088 0c1.075.233 1.867.59 2.35.953z"/></svg>