<svg xmlns="http://www.w3.org/2000/svg" width="60" height="60" fill="none"><path fill="#D9B369" d="M27.182 39.209c-.686.005-1.525-.264-2.05-.752l-7.565-7.017c-1.51-1.51-.655-3.402-.148-3.95a2.8 2.8 0 0 1 3.95-.147l5.2 4.824 9.318-13.459a2.8 2.8 0 0 1 3.889-.707 2.8 2.8 0 0 1 .707 3.889L29.33 38c-.53.764-1.262 1.202-2.148 1.209m-8.646-10.682c-.49.489-.44 1.326.067 1.796l7.564 7.017a1.272 1.272 0 0 0 1.91-.208l11.153-16.11a1.272 1.272 0 0 0-2.09-1.447l-9.818 14.182a.764.764 0 0 1-1.145.125s-5.837-5.415-5.844-5.423c-.234-.216-1.118-.611-1.797.068"/><path fill="#D9B369" d="M29.365 56a1.4 1.4 0 0 1-.59-.131C20.04 51.777 13.388 45.163 9.004 36.21c-3.623-7.398-4.626-14.397-4.89-17.063a2.65 2.65 0 0 1 1.613-2.715A12.49 12.49 0 0 0 13.352 5.92 2.07 2.07 0 0 1 15.425 4h27.881c1.075 0 1.985.835 2.071 1.9a12.49 12.49 0 0 0 7.614 10.528 2.66 2.66 0 0 1 1.625 2.72c-.264 2.666-1.267 9.666-4.89 17.064-4.384 8.952-11.036 15.565-19.77 19.657a1.4 1.4 0 0 1-.59.131M15.425 5.523a.56.56 0 0 0-.555.522 14.01 14.01 0 0 1-8.552 11.792 1.13 1.13 0 0 0-.687 1.161c.255 2.584 1.227 9.368 4.741 16.543 4.218 8.614 10.608 14.98 18.993 18.922 8.385-3.942 14.775-10.308 18.993-18.921 3.515-7.175 4.487-13.96 4.742-16.543.05-.5-.233-.97-.7-1.167a14.01 14.01 0 0 1-8.541-11.808.553.553 0 0 0-.553-.5z"/><path fill="#D9B369" d="M45.226 35.55a.77.77 0 0 1-.335-1.024 44 44 0 0 0 2.33-5.508 48.5 48.5 0 0 0 2.128-8.656l.008-.057A17.58 17.58 0 0 1 40.76 9.08H17.97a17.5 17.5 0 0 1-2.2 5.2.762.762 0 0 1-1.29-.812 16 16 0 0 0 2.037-4.861 1.36 1.36 0 0 1 1.33-1.05h23.037c.637 0 1.183.432 1.33 1.05a16.05 16.05 0 0 0 7.969 10.413c.497.27.778.829.697 1.392a48.752 48.752 0 0 1-2.253 9.222 47 47 0 0 1-2.377 5.581s.009-.018 0 0c-.135.265-.59.568-1.024.334m-15.86 16.485c-.219 0-.436-.052-.634-.155-7.221-3.777-12.784-9.575-16.534-17.233-2.71-5.535-3.86-10.796-4.349-14.235a1.37 1.37 0 0 1 .698-1.392 16 16 0 0 0 3.803-2.86.762.762 0 1 1 1.086 1.068 17.6 17.6 0 0 1-4.063 3.077c.399 2.759 1.468 8.107 4.193 13.671 3.592 7.336 8.907 12.892 15.8 16.516 5.698-2.997 10.34-7.334 13.795-12.891a.761.761 0 1 1 1.293.805C40.84 44.22 35.975 48.754 30 51.88a1.4 1.4 0 0 1-.634.155"/></svg>