<svg xmlns="http://www.w3.org/2000/svg" width="60" height="60" fill="none"><g clip-path="url(#a)"><mask id="b" width="54" height="54" x="3" y="3" maskUnits="userSpaceOnUse" style="mask-type:luminance"><path fill="#fff" d="M57 3H3v54h54z"/></mask><g mask="url(#b)"><mask id="c" width="54" height="54" x="3" y="3" maskUnits="userSpaceOnUse" style="mask-type:luminance"><path fill="#fff" d="M3 3h54v54H3z"/></mask><g stroke="#D9B369" stroke-linecap="round" stroke-linejoin="round" stroke-miterlimit="10" stroke-width="1.5" mask="url(#c)"><path d="M50.988 39.703a4.43 4.43 0 0 0-8.86 0v1.582a4.43 4.43 0 0 0 8.86 0z"/><path d="M55.945 55.945v-3.092a6.33 6.33 0 0 0-4.252-5.978l-3.341-1.16h-3.586l-3.342 1.16a6.33 6.33 0 0 0-4.252 5.978v3.092zM26.203 33.164a4.43 4.43 0 1 0-8.86 0v1.582a4.43 4.43 0 1 0 8.86 0z"/><path d="M31.16 49.406v-3.092a6.33 6.33 0 0 0-4.252-5.978l-3.342-1.16H19.98l-3.34 1.16a6.33 6.33 0 0 0-4.253 5.978v3.092z"/><path d="m25.36 39.809-3.587 6.222-3.585-6.222M4.055 13.7v5.542a4.22 4.22 0 0 0 4.218 4.219h2.32l5.274 5.273v-5.273h9.07M35.062 9.75V8.273a4.22 4.22 0 0 0-4.218-4.218H8.274a4.22 4.22 0 0 0-4.22 4.218v1.75"/><path d="M43.691 9.75h8.035a4.22 4.22 0 0 1 4.22 4.219v10.969a4.22 4.22 0 0 1-4.22 4.218H40.864v5.274l-5.273-5.274h-6.434a4.22 4.22 0 0 1-4.218-4.218v-10.97a4.22 4.22 0 0 1 4.218-4.218h10.837M36.96 55.945H4.056v-6.539H38.12"/></g></g></g><defs><clipPath id="a"><path fill="#fff" d="M3 3h54v54H3z"/></clipPath></defs></svg>