<svg xmlns="http://www.w3.org/2000/svg" width="47" height="28" fill="none"><rect width="44" height="16" x="4.258" fill="url(#a)" rx="5" transform="rotate(15.437 4.258 0)"/><path fill="#222" d="m17.328 6.533-2.71 9.814-1.362-.376-3-8.575-.092-.025-1.987 7.198-1.481-.41 2.71-9.814 1.37.379 3.004 8.586.09.025 1.991-7.207zm-.146 10.522 2.71-9.814 6.154 1.699-.352 1.275-4.673-1.29-.826 2.99 4.352 1.201-.35 1.27-4.352-1.201-.83 3.004 4.73 1.307-.352 1.274zm10.458 2.888-.012-10.566 1.558.43-.187 8.129.091.025 4.088-7.052 1.543.426-.111 8.155.09.025 4.008-7.079 1.562.432-5.437 9.061-1.49-.411-.036-7.922-.076-.021-4.096 6.781z"/><defs><linearGradient id="a" x1="48.258" x2="4.258" y1="8" y2="8" gradientUnits="userSpaceOnUse"><stop stop-color="#DAB24D"/><stop offset=".495" stop-color="#EEDF94"/><stop offset="1" stop-color="#CBA55B"/></linearGradient></defs></svg>