<svg xmlns="http://www.w3.org/2000/svg" width="429" height="458" fill="none"><path stroke="#D9B369" stroke-width="3" d="M139.752 87.943c-2.927-10.486-4.853-14.791-9.58-21.318-1.077-1.482-2.348-3.028-3.719-4.87-8.013-10.758-16.693-24.687-2.767-34.299 6.23-4.302 15.929-5.832 26.103-3.93-2.323 2.96-4.413 5.227-5.472 7.342-2.475 4.946 0 9.44 1.859 14.517 5.152 14.067 2.12 30.456-6.424 42.558Zm109.427-19.156c-19.508-.065-37.834 4.025-54.314 11.007 5.917-5.117 13.015-11.88 18.474-19.178 5.996-8.015 11.219-15.163 20.025-20.833 18.071-11.638 37.114-14.825 55.065-13.552 24.145 1.715 47.174 13.008 71.371 36.97q-29.218-9.242-51.321-1.596c-18.027 5.92-37.791 8.316-59.3 7.182Zm72.578 27.373c-28.098 6.504-50.735.887-70.217-18.095 16.315 2.933 26.26 2.48 41.515-3.02 12.848-4.63 23.754-7.409 34.848-6.913 24.118.154 39.706 7.685 52.889 18.833 9.932 8.4 18.328 20.179 22.543 34.486-11.775-13.627-26.496-24.203-43.413-27.134-12.172-2.108-25.885-.999-38.165 1.843Zm16.333 48.877c-15.677-5.918-30.354-9.414-40.787-13.94-15.004-6.507-22.93-13.814-26.794-22.305 14.697 6.358 30.883 7.424 50.24 4.084 21.439-3.696 42.637-5.014 63.094 4.801 14.156 6.792 24.36 18.463 32.566 33.945 3.579 8.333 7.152 17.252 8.816 27.154 2.607 15.516 1.879 33.194-.483 52.837-5.222-17.711-10.91-32.044-19.654-43.484-15.463-20.227-38.037-32.156-66.998-43.092Zm-22.559 63.253c-14.529-21.354-18.722-32.734-34.917-43.01 32.591-14.587 71.647-7.906 98.302 16.482 26.656 24.389 34.684 61.82 23.933 96.318-2.417-8.649-6.844-16.599-13.522-23.63-9.03-9.502-21.99-17.436-37.744-24.577-4.909-2.225-8.989-4-12.943-5.602-3.022-1.226-6.084-2.317-8.727-3.651-5.157-2.603-9.804-5.602-14.382-12.33Zm-39.924-52.278c-11.059 7.513-20.72 8.49-30.315 3.193q10.875-4.092 19.429-11.185c5.709-4.733 11.065-7.541 16.133-8.658 4.807-1.059 8.928-.952 15.76.834 5.981 1.565 12.236 3.839 18.038 9.121-16.748-3.358-28.937-1.187-39.045 6.695Zm-34.436 57.067c3.052-21.705.924-37.4-4.257-47.178 20.047 10.894 29.722 27.741 27.805 49.626-.742 8.464-1.865 9.14-4.794 16.137-3.588 8.563-3.797 15.918-1.559 23.049-14.668-10.974-19.367-25.029-17.195-41.634Zm88.563 43.862c-2.469-12.431-7.958-23.432-12.997-33.444 14.287 5.056 25.578 11.274 34.188 18.794 30.242 26.418 31.816 62.106-.441 101.527-32.258 39.424-74.794 47.902-112.084 81.064-10.739 9.548-17.117 19.093-21.204 28.118.639-24.984 11.191-46.538 33.329-68.408 15.915-15.723 33.704-29.574 49.276-45.458 21.921-22.361 36.919-46.978 29.933-82.193Zm-54.657 15.597c11.844 27.351 15.566 47.836 10.99 63.318 25.44-17.722 35.014-49.735 26.768-96.04-10.026-34.635-25.362-58.135-51.852-68.372 14.408 16.644 24.841 33.304 16.368 55.282-2.932 7.604-6.187 14.246-6.913 20.812-1.043 9.442 1.388 18.527 4.639 25Zm-68.16 100.642c-10.864 15.144-18.582 28.216-20.686 40.823-2.375 14.22 2.861 27.185 12.792 38.643-2.205-21.549 3.281-38.904 15.864-52.624 7.153-7.804 15.486-13.295 23.123-18.972 8.26-6.14 15.816-12.527 23.106-23.124 5.193-7.55 8.528-15.694 10.771-24.576 3.76-14.881 2.567-33.834-4.074-47.686-3.832-7.993-8.673-14.581-14.329-20.697-8.002-8.654-17.724-16.231-29.287-24.355 5.927 11.413 10.7 22.068 13.193 32.683 5.214 22.2 2.467 43.108-6.44 62.556-5.712 12.478-15.743 25.773-24.033 37.329Zm-84.784 22.278c3.646 15.557 13.984 32.36 34.631 45.805 4.617 3.004 10.194 5.407 16.288 6.505-7.317-11.045-9.467-23.408-5.913-37.137 2.472-9.554 7.736-19.771 15.2-30.664 9.997-14.594 21.602-27.157 30.015-42.977 16.626-31.266 15.596-62.285-7.568-92.565-3.512 32.429-11.303 52.701-23.988 65.479-10.128 10.2-22.95 16.224-34.742 26.257-11.001 9.363-20.617 21.546-24.213 35.13-2.037 7.691-1.662 15.834.29 24.167Zm16.263-82.216c-8.47 2.809-15.247 4.912-20.482 8.397-15.886 10.574-16.827 25.135-1.855 40.421.504-13.039 3.321-21.961 8.526-26.72 3.659-3.349 11.682-5.377 16.537-7.467 5.855-2.52 10.899-5.202 14.993-8.099 5.602-3.964 9.101-8.398 11.4-13.049q4.551-9.822 4.386-12.505-10.992 14.13-33.505 19.022Zm-27.809 81.721c3.149 17.038 9.014 31.057 20.429 42.231-22.16-12.193-39.468-29.95-49.657-50.66-8.35-19.751-6.82-36.267 4.364-49.859 9.681 10.211 16.356 21.504 20.143 34.042 2.309 7.643 3.25 16.29 4.721 24.246Zm-6.252-295.729c-6.95 3.594-10.095 4.611-13.645 6.793-.3-8.36 1.12-11.538 6.123-14.273s7.081-2.609 11.801-.265c4.979 2.473 7.092 5.442 9.366 9.99-12.063 6.938-17.157 15.431-21.876 27.41q20.503-23.191 40.421-25.361 19.524-2.314 46.446 1.24c9.167-10.497 18.211-14.924 28.247-19.208 9.132-3.432 19.588-5.476 30.255-.213 6.167 4.178 11.311 8.607 14.165 15.618 1.263 3.102 1.919 6.262 1.435 9.477-.097.825-.219 1.868-.362 2.687-1.919 10.981-8.193 19.203-18.203 29.284-6.359 5.932-14.14 10.359-21.493 12.114 3.883 17.957 7.185 32.372 7.439 40.251.072 6.486.023 11.351-.548 14.942-.342 2.165-1.002 3.983-1.578 5.099-3.005 5.578-5.228 9.16-7.486 10.486-1.81 1.064-3.923.094-5.777-.438-9.74-2.798-15.013-4.195-15.013-4.195-3.777 24.25-8.505 37.553-12.764 43.629-5.758 9.019-15.862 16.467-30.67 22.347q-32.825 14.768-59.743 20.93c-15.623 3.948-23.387 8.593-24.842 16.764-6.603-2.874-11.244-14.21-16.277-18.193-1.583 5.034-1.583 8.511-1.583 12.402-11.358-1.401-14.226.737-17.94-3.891-2.813-3.511-2.772-8.016-2.98-12.337q-1.032-21.485 8.957-35.325c1.273-1.765 2.121-1.482 3.92-.212 12.819 8.279 24.151 12.682 34.259 12.858q17.371-.777 43.787-21.55l11.878-9.399a2471 2471 0 0 0-28.187 13.123q-15.749 8.438-24.46 8.988c-7.656.482-30.599-8.522-36.61-13.156-4.784-3.772-10.28-14.768-13.652-26.248 4.656-5.127 8.298-8.942 10.745-11.271 1.743-1.658 2.301-2.454 4.715-2.82q2.507-.383 4.948.466c.886.307 1.382.694 2.352.728q1.904.068 3.831-1.56 4.112-3.16 4.52-4.966 1.127-2.876-4.875-4.079-11.73-2.19-35.1-2.038c-6.051.13-6.036-.482-6.036-4.322s4.968-16.263 15.697-24.589q13.112-10.85 33.152-22.614c7.634-4.58 12.427-8.973 14.115-13.973.775-2.298.678-6.737 1.662-9.882q2.182-7.05 24.73-25.362c.842-.721 4.449-3.161 5.008-3.641 1.793-1.54.059-3.45-2.274-2.245Zm-37.57 27.503c4.094-3.633 10.525-8.059 18.348-13.591-.046-5.234-.11-9.131-.159-11.618-.068-3.44-.272-5.093 1.63-8.323q1.694-2.876 5.011-5.433 8.1-5.12 16.422-2.66c5.881 1.065 11.401 6.408 16.951 14.122 8.806-3.966 29.614-3.81 56.93-1.397 7.898-8.841 17.396-15.266 28.376-19.124 13.714-4.816 28.244-5.23 40.06 4.623q5.647 4.709 9.1 12.115c3.179 6.815 3.334 11.905 2.584 19.39-1.131 11.254-5.605 20.697-13.191 28.686-5.959 6.276-13.769 11.709-23.849 16.073 2.021 6.368 5.332 17.942 6.162 29.998.83 12.059-.868 24.687-5.454 33.147-1.107 2.044-2.51 4.379-3.927 6.41-1.107 1.591-2.122 3.048-3.691 3.696-4.349 1.787-13.341.636-22.785-3.017.343 9.989-.462 19.535-1.965 26.778-4.566 22.005-16.841 26.44-35.078 36.204-14.336 7.676-29.899 12.535-45.283 17.687-8.54 2.86-16.32 4.898-21.761 8.048-6.815 3.942-9.898 8.828-12.488 13.153-.744 1.24-.482 1.489-1.755.846-2.195-1.115-3.341-2.658-4.677-4.93-.552-.941-.581-.815-.969.273-1.724 4.846-.967 5.185-5.274 3.587-5.418-2.013-8.4-4.011-10.987-6.492-5.147 1.046-9.612 1.613-13.902 1.671-3.393.049-6.83-.116-9.61-.816-5.974-1.503-9.346-6.546-11.944-12.381-6.46-14.507-2.616-26.381 6.305-39.466.817-1.15.45-2.038-.654-2.748-10.015-6.656-10.845-15.19-11.926-26.107-.94-9.521-1.156-17.647-1.07-24.109-4.504-4.475-7.53-7.641-9.01-9.657-1.71-2.325-1.326-4.843-.733-7.591 2.387-11.073 14.024-24.624 20.835-31.664 14.112-14.588 26.194-24.828 34.292-30.545q1.964-2.744 3.174-5.265c.459-.96.734-1.733.921-2.379 1.134-3.899 1.847-4.36 5.04-7.194Zm150.25 18.754q1.497-18.352-20.743-37.6c6.694-13.084 23.923-15.82 36.727-10.843 3.445 1.34 5.472 3.267 6.998 5.651 2.117 3.302 2.956 7.48 2.376 12.187-1.495 12.149-12.181 24.076-25.358 30.605Zm-81.193-24.965c-9.007 7.151-14.192 13.919-14.378 20.176-.157 5.33 2.387 7.361 5.834 7.786 1.35.168 2.56-.063 4.157-.214 4.191-.393 8.42-.254 12.547.24q5.792.693 7.085 1.72-3.584 2.4-5.7 5.479c-3.671 5.336-9.026 5.402-15.264 5.433-10.081.048-12.486-.973-16.929-4.263-.604-.517-2.192.318-5.806 1.995q-17.745 9.687-38.41 32.464c-1.077 1.187-2.824 4.272-4.148 2.232-.74-1.145-.613-5.591-.475-7.016.239-2.455.475-2.677 2.22-4.41 1.247-1.24 2.833-2.59 4.782-4.069 26.65-18.624 40.287-27.935 40.287-27.935-1.241-8.809 2.931-14.69 9.35-19.913 4.43-3.605 9.987-7.337 14.848-9.705Zm70.81-74.353c-20.059 24.479-40.802 39.466-60.452 43.543 8.317-10.305 14.789-23.252 17.638-37.423q7.983-33.664 42.283-46.425 47.922-11.428 81.372 10.908-61.823 3.394-80.841 29.397Zm-76.624 45.56c-4.758-4.745-10.555-7.586-17.937-9.93-2.17-.688-5.555-1.883-8.26-2.327-9.77-1.61-22.416-5.387-18.015-18.106 1.114-3.218 6.755-10.137 9.666-12.237 4.679-3.373 8.888-4.584 12.873-5.767.281 3.495.263 6.707 1.163 9.287 1.685 4.828 5.343 7.777 8.206 11.198 5.491 6.56 9.543 13.417 12.304 27.883Z"/></svg>