<svg width="20" height="20" viewBox="0 0 20 20" fill="none" xmlns="http://www.w3.org/2000/svg">
<g clip-path="url(#clip0_2202_2158)">
<g clip-path="url(#clip1_2202_2158)">
<path d="M18.0918 15.251H15.4158C15.195 15.2518 14.9763 15.2088 14.7723 15.1243C14.5684 15.0398 14.3833 14.9157 14.2278 14.759L12.6708 13.202C12.5747 13.1066 12.4527 13.0417 12.3199 13.0155C12.1871 12.9893 12.0495 13.0029 11.9244 13.0547C11.7994 13.1065 11.6924 13.1941 11.617 13.3065C11.5417 13.4189 11.5012 13.5511 11.5008 13.6865V14.3292C11.5006 14.5736 11.4034 14.808 11.2306 14.9808C11.0577 15.1536 10.8234 15.2508 10.579 15.251H8.125C6.4075 15.251 3.649 11.393 1.63675 8.15673C1.21953 7.48352 0.998968 6.707 1 5.91498V5.72373C1 5.18748 1.4365 4.75098 1.97275 4.75098H4.375C4.4443 4.75099 4.51225 4.77019 4.57129 4.80647C4.63034 4.84274 4.67818 4.89467 4.7095 4.95649C5.23675 5.99749 6.72325 8.81823 7.26475 9.36049C7.40275 9.49774 7.5355 9.57874 7.6195 9.56223C7.66943 9.55477 7.71539 9.53073 7.75 9.49398V6.64623C7.75 6.24948 7.5955 5.87749 7.315 5.59699L7.1095 5.39148C7.05655 5.33918 7.0204 5.27228 7.00566 5.19932C6.99093 5.12636 6.99828 5.05067 7.02678 4.98192C7.05528 4.91316 7.10363 4.85446 7.16566 4.81333C7.22769 4.77219 7.30058 4.75049 7.375 4.75098H10.6795C11.1318 4.75098 11.5 5.11923 11.5 5.57148V9.40773C11.7078 9.50374 12.0798 9.61323 12.3738 9.34848C12.688 9.06348 13.4718 7.50124 14.3688 5.36748C14.5263 4.99323 14.8915 4.75098 15.2995 4.75098H17.9305C18.52 4.75098 19 5.23098 19 5.82123C19 6.42498 18.7923 7.01749 18.415 7.48924L16 10.508V10.9715L18.733 13.7045C18.8604 13.831 18.9474 13.9925 18.9827 14.1685C19.018 14.3445 19.0002 14.5271 18.9314 14.6929C18.8626 14.8588 18.7461 15.0004 18.5965 15.0998C18.447 15.1992 18.2713 15.2518 18.0918 15.251ZM12.1855 12.251C12.5688 12.251 12.9295 12.4002 13.201 12.6717L14.758 14.2287C14.9313 14.402 15.1713 14.501 15.4158 14.501H18.0918C18.1833 14.501 18.2215 14.4402 18.2365 14.4042C18.2515 14.3682 18.2673 14.2977 18.2028 14.2332L15.3603 11.3907C15.2899 11.3206 15.2502 11.2254 15.25 11.126V10.376C15.25 10.2905 15.2793 10.208 15.3318 10.1412L17.8293 7.01974C18.1014 6.67954 18.2498 6.2569 18.25 5.82123C18.25 5.7363 18.2163 5.65484 18.1562 5.59478C18.0961 5.53473 18.0147 5.50098 17.9298 5.50098H15.2988C15.2478 5.5002 15.1977 5.51472 15.1551 5.54266C15.1124 5.5706 15.0791 5.61068 15.0595 5.65773C14.356 7.32948 13.4065 9.42349 12.8763 9.90349C12.181 10.5327 11.2848 10.1967 10.909 9.93198C10.86 9.89742 10.8199 9.85159 10.7922 9.79835C10.7646 9.7451 10.7501 9.68599 10.75 9.62599V5.57148C10.75 5.55279 10.7426 5.53486 10.7294 5.52163C10.7161 5.50841 10.6982 5.50098 10.6795 5.50098H8.18575C8.3905 5.84373 8.5 6.23673 8.5 6.64623V9.62599C8.5 9.69424 8.482 9.76098 8.44675 9.81874C8.4205 9.86299 8.176 10.25 7.714 10.3062C7.384 10.3482 7.05175 10.208 6.7345 9.89073C6.08275 9.23899 4.58425 6.35898 4.14475 5.50023H1.97275C1.91373 5.50082 1.8573 5.52458 1.81563 5.56639C1.77396 5.6082 1.75039 5.66471 1.75 5.72373V5.91498C1.75 6.57048 1.9315 7.20873 2.27425 7.76073C4.85875 11.918 7.1005 14.501 8.125 14.501H10.5783C10.6237 14.5008 10.6673 14.4826 10.6995 14.4505C10.7316 14.4183 10.7498 14.3747 10.75 14.3292V13.6865C10.75 12.8952 11.3943 12.251 12.1855 12.251Z" fill="white"/>
</g>
</g>
<defs>
<clipPath id="clip0_2202_2158">
<rect width="20" height="20" fill="white"/>
</clipPath>
<clipPath id="clip1_2202_2158">
<rect width="18" height="18" fill="white" transform="translate(1 1)"/>
</clipPath>
</defs>
</svg>
