<svg xmlns="http://www.w3.org/2000/svg" width="20" height="12" fill="none"><g clip-path="url(#a)"><g clip-path="url(#b)"><path fill="#fff" d="M18.092 11.25h-2.676a1.67 1.67 0 0 1-1.188-.491L12.67 9.202a.687.687 0 0 0-1.17.484v.643a.92.92 0 0 1-.922.922H8.125c-1.718 0-4.476-3.858-6.488-7.095A4.25 4.25 0 0 1 1 1.915v-.192c0-.536.437-.972.973-.972h2.402a.38.38 0 0 1 .335.205c.527 1.041 2.013 3.862 2.555 4.404.138.137.27.218.355.202a.23.23 0 0 0 .13-.068V2.646c0-.397-.154-.769-.435-1.05l-.206-.205a.374.374 0 0 1 .266-.64h3.305c.452 0 .82.368.82.82v3.836c.208.096.58.206.874-.059.314-.285 1.098-1.847 1.995-3.98.157-.375.523-.617.93-.617h2.631c.59 0 1.07.48 1.07 1.07a2.68 2.68 0 0 1-.585 1.668L16 6.508v.463l2.733 2.733a.905.905 0 0 1-.641 1.547"/></g></g><defs><clipPath id="a"><path fill="#fff" d="M0 0h20v12H0z"/></clipPath><clipPath id="b"><path fill="#fff" d="M1-3h18v18H1z"/></clipPath></defs></svg>